# xmcd CD database file
#
# Track frame offsets:
#	150
#	39320
#	43275
#	85067
#	109025
#	159470
#
# Disc length: 2619 seconds
#
# Revision: 0
# Processed by: cddbd v1.5PL3 Copyright (c) Steve Scherf et al.
# Submitted via: CDex 1.50
#
DISCID=410a3906
DTITLE=Pat Metheny - Special Quartet Live (2/2)
DYEAR=2000
DGENRE=Jazz
TTITLE0=What do you Want
TTITLE1=Pat Talks
TTITLE2=As I Am
TTITLE3=Faith Healer
TTITLE4=Song for Bill
TTITLE5=Summertime
EXTD=YEAR: 2000
EXTT0=
EXTT1=
EXTT2=
EXTT3=
EXTT4=
EXTT5=
PLAYORDER=
